<svg xmlns="http://www.w3.org/2000/svg" viewBox="0 0 196 196">
  <g>
    <path d="M152.29,49.59c3.31,3.95,9.1,6.28,12.5,10.24-2.39-11.73-11.47-21.24-22.15-23.57C147.84,40.18,148.97,45.59,152.29,49.59ZM23.87,79.24c7.36-16,18.34-12.62,23-27.88-2.62,4.68-14.62,6.65-20.19,18.65,2.84-7.13,1.42-18,6.22-23.92C18.52,56.7,24.65,73.86,23.87,79.24ZM37.2,117.65c1.32,6.24-2.56,15.24,3.6,23.84-6.4-7.16-19.9-8.98-25.4-19.9,6.9,26.61,24.86,21.13,33,26.91C41.67,138.95,47.12,132.59,37.2,117.65Zm-2.08,16.71c-4-14.88,3.09-20-2.28-34.28-.56,8-5.91,12-2.3,26.66-6.38-12.46-16.25-17.09-19.14-25.63C11.63,124.46,30.4,127.91,35.12,134.36Zm28.81,24.93c-5.52-7.64-1.75-12-17.26-25.84,3.28,5.07-.1,11.44,10.36,21.35-10.24-6-24.36-3.46-31.16-11.52C37.55,165.64,58.11,156.51,63.93,159.29ZM139,154.8c10.47-9.91,7.08-16.28,10.36-21.35-15.51,13.87-11.74,18.2-17.26,25.84,5.82-2.78,26.38,6.35,38.07-16-6.77,8.05-20.93,5.47-31.17,11.51Zm16.23-13.31c6.16-8.6,2.28-17.6,3.6-23.84-9.92,14.94-4.47,21.3-11.14,30.88,8.12-5.78,26.08-.3,33-26.91C175.13,132.51,161.62,134.33,155.23,141.49Zm-24.78,18.85a76.84907,76.84907,0,0,0-17-2.54,41.18981,41.18981,0,0,0-15.46,2.63,41.23993,41.23993,0,0,0-15.47-2.63,76.9299,76.9299,0,0,0-17,2.54c-9.32,2.49-17.39,4.41-24.42.85,6.73,6,14.6,8.12,26,6.89,9.46-1,17.09-5.74,26-5.68h.35a47.65985,47.65985,0,0,0-14.7,11.43l4.3.58s4.53-9.1,14.93-11.46c10.41,2.36,14.94,11.46,14.94,11.46l4.3-.58a47.65994,47.65994,0,0,0-14.7-11.43h.35c8.92-.06,16.55,4.66,26,5.68,11.36,1.23,19.23-.91,26-6.89C147.84,164.75,139.77,162.83,130.45,160.34Zm-97-76.37c-3.85,7.38-9.83,9.07-9.19,24.31C21.07,94.74,13.4,89.71,13.46,81.05c-5.37,22.54,8.94,25.26,12.64,34.72-.54-13.56,8.11-16.29,7.38-31.8Zm5.38-17.44c-1.34,1.87-2.28,2.67-5.86,5.61a29.09,29.09,0,0,0-10.4,17c.37-8.28-4.74-20.17-1.34-28.84-13.17,18.59.75,29.73,1.25,36.46,3.43-12.98,11.28-13.08,16.38-30.23ZM173.4,89.12a29.09,29.09,0,0,0-10.4-17c-3.57-2.94-4.52-3.74-5.86-5.61,5.1,17.15,12.95,17.25,16.36,30.21.49-6.73,14.41-17.87,1.24-36.46C178.17,68.95,173.06,80.84,173.4,89.12Zm11.17,12c-2.86,8.54-12.73,13.17-19.11,25.63,3.61-14.7-1.74-18.62-2.3-26.66-5.37,14.28,1.69,19.4-2.28,34.28,4.76-6.46,23.52-9.91,23.72-33.26Zm-22-17.14c-.73,15.51,7.93,18.24,7.38,31.8,3.68-9.46,18-12.14,12.65-34.72.1,8.66-7.61,13.69-10.84,27.23.64-15.25-5.36-16.94-9.21-24.32ZM43.75,49.59c3.31-4,4.44-9.41,9.65-13.33C42.71,38.59,33.67,48.1,31.24,59.81,34.64,55.85,40.4,53.52,43.75,49.59Zm105.42,1.79c4.65,15.26,15.64,11.87,23,27.88-.77-5.38,5.35-22.54-9-33.15,4.8,5.89,3.38,16.79,6.22,23.92-5.6-12.02-17.6-13.99-20.22-18.67Zm-37.29,8.66a36.23,36.23,0,0,0-8.76-2.38v2a33.64984,33.64984,0,0,1,8.08,2.22,5.39989,5.39989,0,0,0,.68-1.86Zm-2.23-18.88.59-.53-1.12-.47-2.94-.06-.78.49-1.73-.14v.42a28.99951,28.99951,0,0,1,3,.32l1.43-.13Zm-5.66,63.32c0-.5-.66-1-1.64-1.44h-.17c0,.41-.05,2.4-.07,3.37,1.21-.58,1.88-1.16,1.88-1.95Zm-34-37.32a7.10029,7.10029,0,0,1,.25-1.08,4.7302,4.7302,0,0,1-1.21.13Zm28.09,86.43a59.91,59.91,0,0,0,6.07-119.52,2.053,2.053,0,0,1-.07.34c-.12.58-.23,1.11-.32,1.57a57.91,57.91,0,0,1,34.89,16.33l-6.61,6.62.25-1.17-.86-.38-1.2-.07.26-.76-.8-2.71-1.65-1.8-5.16-2.73-.45.47-.94.28a15.43,15.43,0,0,1,2.74,8.68v1.18l2.56,3.21-1.2.28.81,1.18-2.26,2.26-.9-1.73a15.47006,15.47006,0,0,1-1.71,3.37l.5.47-7,7c-.42-.41-.86-.79-1.31-1.16-.66.31-1.34.6-2,.86l.6.46-.36.36-.81.46-.31.81-.5-.51-1.47.49.4.64,1-.26h.67l.05-.36.51-.26.15-.3.91-.25h.71l.42.38-2.76,2.76-.21-.29-2.88.48-.64.64-.64.07,1.8-1.71-.65-.32-1.67,2.24.49-.06v.83l.61.23.12.88-1-.2-1,.2-2.53-1.31-.33,10.16c6,2,12.33,4.92,12.33,12.54a9.42,9.42,0,0,1-4.3,8.06h0l-.13.08h0l-.2.14c-2.41,1.59-5.52,2.44-8.22,3.29l-.08,5.34c4.29,2.13,9.49,5.23,9,14.1-.06,2.18-.91,2.78-1.64,3h0a45.00053,45.00053,0,0,1-7.75,1.23v2a47.94,47.94,0,0,0,29.87-13.19l7,7a57.88,57.88,0,0,1-80.18.08l7-7a48,48,0,0,0,29.44,13v-2a46,46,0,0,1-28-12.44l1.86-1.85,2.55.29,1.36-1.46,3.55.12.53-1.23-.13-.52a36.22986,36.22986,0,0,0,18.14,7.19v-2a34.38,34.38,0,0,1-19.49-8.91l7-7a24.78,24.78,0,0,0,5.49,3.93,7.16,7.16,0,0,1,.7-1.83,22.54992,22.54992,0,0,1-5-3.33l7-7a12.48032,12.48032,0,0,0,3.73,2.07c0-.69,0-1.42-.05-2.1a10.63979,10.63979,0,0,1-2.3-1.36l2-2c-.69-.21-1.39-.43-2.08-.66l-1.32,1.31a10.62973,10.62973,0,0,1-1.68-2.42,23.75977,23.75977,0,0,1-3.47-1.8,13.46,13.46,0,0,1-6.46-11.83,14.17994,14.17994,0,0,1,2.82-9l-7-6.94a34.35,34.35,0,0,1,18.64-9.23v-2a36.19,36.19,0,0,0-19.92,9.74l-1.17-1.18c-.27.47-.58,1.07-.94,1.82l.74.74A36.13,36.13,0,0,0,61.8,92.95H51.91A46,46,0,0,1,64.63,61.81l3.14,3.13h.44a4.84987,4.84987,0,0,0,1.77-.52l-4-4a46.43946,46.43946,0,0,1,6.85-5.47c.2-.66.38-1.24.48-1.45a24.58069,24.58069,0,0,1,1.51-2A48.43962,48.43962,0,0,0,64.6,59.07l-7-7A57.82,57.82,0,0,1,92.11,35.92a1.20452,1.20452,0,0,0-.08-.42c-.09-.46-.19-1-.29-1.49a59.91,59.91,0,0,0,6.34,119.58Zm12.93-41.39Zm29-58.51a57.83,57.83,0,0,1,16,39.38h-9.85a47.75016,47.75016,0,0,0-5.13-21l.08-.18.68.36.16-.52-1.73-3.14-2.08-2.88-2.45-2a36.17458,36.17458,0,0,0-2.63-3ZM127.48,66.26l2.37.11.56.68-.28,1,3.28,2,.64-.09,4.21,4.81,1.72-.6a46.00008,46.00008,0,0,1,4.27,18.8H134.4a36.38,36.38,0,0,0-.91-7.5l.45-.6.61-3.09-.46-3.31-1.19-3.81-2.75-4,.67.35.33-.33-2.2-1.5-.15.49,2.21,3.15,1.25,2.59.89,2.55.28,1.73.46,2.89-.83.06s-.95-1.77-1.24-2.5l.44-.66-.84-1.2v-1.2l-.6-.77-.75.1c-.26-.5-.55-1-.84-1.47l.53.27.14-.14-.28-.62.64-.36-.29-.36-.95.36.38-1.5-.56-.32-.51,1.2a37.62012,37.62012,0,0,0-3.58-4.56Zm-2,23.08,1.76-1,1.8-.28.4-.88,1-.6.38-.84.32-1.46c.14.52.27,1,.39,1.56l-.95,2.84v1l1.39-1.85a33.9291,33.9291,0,0,1,.49,5.18h-8.63l-.2-.75,1-.8.2-.49.44-.32,1.13-.06.12-.53Zm-11.79-6.75.88-.2v-.21l-.88-.59.3-1.86,1-1a23.35991,23.35991,0,0,1,1.83,2.37l-.37,1.14-1-.68-.73.2.36.68h.36l-.4,1-.28-.4Zm3.77,32.7-2.13-.61-.64.24-1.2-.92-1.09-.41c.56-.4,1.1-.82,1.62-1.27l1.71,1.27,1.34.7.66.67Zm-1.08-38,7-7a34.19966,34.19966,0,0,1,4.31,5.78l-.87.24.05,1.56,2.53,1.72a32.55137,32.55137,0,0,1,1.63,4.4l-.46.66-.94.6-.23,1.41-.65.36-.53.64-.55-.2h-1l.56-.76.4-2,.64-.4-1.88-1.8-1.4.48-.32,1.32-.89,1-.92-.77-.32-.81.52-.32.29.53.43-.16-.18-.88h-.62v.36l-.4.08-2.16-2.52-.73-.56.28-.31.66-.23-.61-.24s-.77.18-.86.18l.44.55h-1.1a25.2785,25.2785,0,0,0-2.1-2.92Zm3.54,37.07-.94-1,.72-.94.91-1.85-.35-.52.6-1.37-.07-1.23-.39-1.24-.86-.31-.32.73-.51-.14a23.28153,23.28153,0,0,0,2.06-3.6l.89-.38.49-.67.24.28.6-.72-.48-.6.44-.12.81.32h1.52l.92-.48,2.4-.64-.45-.8-.16-1,1.29.57.48-.28-.24-1-1.58.6-1.74-.36-1.33-2.71h7.53a34.28008,34.28008,0,0,1-9.51,22.4l-1-1,.44-1.38-.8-3Zm1.34,19.23.92-2-.36-.88,1.37-1.21v-.72l-1.17-.72,1-1.92,1.45-1.88-1.45-1.57H121.9l-.67-1.08c.58-.48,1.15-1,1.7-1.49l7,7A46.87018,46.87018,0,0,1,121.26,133.59Zm8.67-9.2.77-.86-.72-3.81-.51-.2.31-.64-1.65-.52-.32,1.36-.16,1.73-.34.31-3-3a36.18,36.18,0,0,0,10.09-23.8h9.86a46,46,0,0,1-13,30.74Zm2.72,2.71a48,48,0,0,0,13.53-32.11h9.85a57.8,57.8,0,0,1-16.43,39.07ZM73.4,117.53a23.96244,23.96244,0,0,1-2-2.31l.31-2.49-1-2.39-.31-3.75-1.17-2.26.17-1.41-1.41-2.69-1.19-.64.5-1.43-.51-1.14.5-1.29h1.35l.48-.79H71.4l.35.68-.43,2.34-.28.4.87,1.88-.51.35-.4-.5-.16.18.39,1.12.67,1.3h.32l.18-1.17-.32-.43v-.79l-.18-1.71.49-2.89-.47-.78h1.65a24.52,24.52,0,0,0,6.77,15.67ZM66.88,98.28l-.94,1.46H64.4l-.12-.1a32.83978,32.83978,0,0,1-.51-4.68h3l-.71,2.38Zm3.23-6.76.19-2,1.16-.67,2.09.36.31.38a23.72862,23.72862,0,0,0-.31,3.39H71.19Zm10,7.36.49-.25,1.29,1-.56.46,1.45,1-.09-1,.77-1.28.81.86.82,1.18-1.49.33.68,1.35,1-.55-.14-.43.78-.53.46-2.14a12.82991,12.82991,0,0,0,2.26,3.46l-7,6.95a22.5,22.5,0,0,1-6.1-13.06l1.42,1.52,1.44-.16ZM72.98,70.15l7,7a24.65006,24.65006,0,0,0-3.69,5.32H75.8l-1,.31h-.33l-1.05,1,1.32-.21,1.19-.3c-.08.15-.14.3-.21.46l-1,.64h-.49L72.7,85.53l-1.47-.12-2.15,4,.43.8L68.34,91.5l-.17,1.68H63.7A34.27,34.27,0,0,1,72.98,70.15Zm-9,52.51,2.21,1.29.46.31-1.6,1.6c-.75-.77-1.47-1.57-2.17-2.39Zm-2.2-27.7A23.84542,23.84542,0,0,0,62,97.81l-1.2.27-.25,1.23-2.51,3.18.06,4.39-2.58.86H54.11a46.2,46.2,0,0,1-2.19-12.79Zm-9.72,12.73-.58-.1-.55-.61-2.76-.24.85,1.16-2.56-.49.67-.61-.62-.62-1.85.81L44,108.21l.26,2.8,2.14,5.08,1,1.6.59.21-1.61-3-.36-1.55.37-.38-.22-.86,1,.13,1.49,2.25.37.15V113l.6.35.13.89,1.56.42.65-.47.23.16v1.19l.69.85.83.19,1.68,3.01,1.1.3.35-1.44a48.08982,48.08982,0,0,0,6.79,8.76l-7,7A57.75,57.75,0,0,1,40.13,94.96h9.84A48.15991,48.15991,0,0,0,52.06,107.69ZM56.3,53.48l7,7A48,48,0,0,0,50,93.06H40.12A57.78,57.78,0,0,1,56.3,53.48Zm71.27-3.59-.6-1-1.28-.64-1,.76,1.28.68,1.44,1Zm-6,27.78v.76l1.7-.51.52-1-1.18-1.54.63-.94,1.59,1.13.3-.23-.32-.22-.36-.69.65-.37-.64-.85-1.49.76-.52.9-.3.82.66,1.11-.24.52ZM50.4,121.83l.12-.45-.89-1.92-1-.39Zm40.25-37c0,1.65,1,2.81,2.84,3.82v-.73l-1.15-1.15.61-1.11.5-.14c0-1.93-.08-4.08-.09-4.39h-.09c-1.68.94-2.6,2.08-2.6,3.7Z" fill="currentColor" />
    <path d="M101.67,127.5c3.09,1.56,5.94,3.72,7.13,7.82.52-6.78-3.28-9.73-7.05-11.71C101.75,123.59,101.67,127.5,101.67,127.5Z" fill="currentColor" />
    <path d="M122.2,58.69c0-6.16-4.47-13-15.42-15.4a23.72915,23.72915,0,0,0-3.33-.39c0,.93-.08,3.05-.08,3.05,0,.67-.06,3.14-.08,3.67a15.44933,15.44933,0,0,1,2.11.3c6.36,1.52,8.63,5.16,8.63,8.77,0,5.85-5,8-11.14,9.72l-2,.53c-1.86.46-3.78.91-5.67,1.42-.68.18-1.36.38-2,.58h0C86.4,73.01,80.55,76.3,80.55,84.71s6.68,11.46,13.2,13.46c0-2.39-.09-4.81-.14-7.22-2.88-1.35-4.91-3.13-4.91-6.12s1.85-4.69,4.68-6a19.57052,19.57052,0,0,1,2-.79c1.63-.55,3.45-1,5.36-1.48l2-.5h0C111.91,73.88,122.2,71.01,122.2,58.69Z" fill="currentColor" />
    <path d="M89.21,117.49c0,3.36,2.49,5.2,5,6.59,0-.57-.11-5.78-.11-5.87.06-1,1.06-1.66,1.87-2.05a39.91093,39.91093,0,0,1,4-1.5c.73-.26,1.37-.51,2.07-.72h0c5-1.5,10.74-3.41,10.74-9.48s-5.02-8.55-10.38-10.41c0,1.93-.09,4.75-.13,6.7,2.28.9,3.79,2,3.79,3.71,0,2.17-2.32,3.42-4,4.06-.68.26-1.73.61-2,.7-1.32.41-2.75.89-4.08,1.38a17.3889,17.3889,0,0,0-2,.87C91.61,112.67,89.19,114.42,89.21,117.49Z" fill="currentColor" />
    <path d="M92.58,43.86a39.29932,39.29932,0,0,0-6,2.45c-2.15.71-5.18.83-8.3,4.24a44.4599,44.4599,0,0,0-2.88,3.7c-.94,1.37-1,3.55-1.67,4.72a3.94,3.94,0,0,0-.77,2.67v.05a4.5,4.5,0,0,1-1.15,2.14,4.38,4.38,0,0,1-4.06,1.54c1.43.71,3.39-.29,3.39-.29a27.70759,27.70759,0,0,0-.75,2.84c1.6-3.62,3.07-4.95,3.53-5.31.69.15,2.11.09,4.75-1.43,3-1.71,7.48-4.51,8.75-6.28a11.78,11.78,0,0,1,5.29-4C92.69,48.24,92.63,45.86,92.58,43.86Zm-12.6,11.3-1.58.33,1.85-3,2.15.1Z" fill="currentColor" />
    <path d="M98.75,117.07c-.28.1-1,.42-1.51.58s-1.13.44-1.13.62.48,26.11.48,26.68c0,5.37,2.73,5.4,2.73,0,0-.38.55-28.25.55-28.25S99.22,116.9,98.75,117.07Z" fill="currentColor" />
    <path d="M95.92,108.47c.86-.3,1.7-.56,2.49-.8l1.66-.52c0-1.64.49-24.33.58-28.45a50.11,50.11,0,0,0-5.25,1.52C95.4,83.31,95.88,105.99,95.92,108.47Z" fill="currentColor" />
    <path d="M98.2,21.59c-7.68,0-4.42,11.39-3.81,15.1,0,.17.62,25.73.74,31.59,1.17-.31,2.33-.59,3.45-.87l2.32-.57c.12-5.65.68-30,.7-30.2C102.06,32.67,106.08,21.59,98.2,21.59Z" fill="currentColor" />
  </g>
</svg>
